# xmcd
#
# Track frame offsets:
#	150
#	652
#	18468
#	30027
#	35186
#	51912
#	65353
#	81060
#	94083
#	105532
#	119712
#	133062
#	151879
#	182862
#	204027
#	218169
#
# Disc length: 3102 seconds
#
# Revision: 0
# Processed by: cddbd v1.5.1PL0 Copyright (c) Steve Scherf et al.
# Submitted via: dBpowerAMP V4.0
#
DISCID=cf0c1c10
DTITLE=3P - 人人音樂
DYEAR=2001
DGENRE=
TTITLE0=DATA
TTITLE1=DATA
TTITLE2=DATA
TTITLE3=紛紅小簿簿 Welcome Back Mix
TTITLE4=青春火花
TTITLE5=神婆話
TTITLE6=Oh My Way
TTITLE7=我吃男人 (直女仔 and 孌男仔專用)
TTITLE8=我病了
TTITLE9=大個?
TTITLE10=Bonus Track
TTITLE11=只要有想去的地方
TTITLE12=苦海孤雛
TTITLE13=只要有想去的地方 The Truth Is Out There Mix
TTITLE14=大個? (國語版)
TTITLE15=紛紅小簿簿 People Love Music Mix
EXTD=
EXTT0=
EXTT1=
EXTT2=
EXTT3=
EXTT4=
EXTT5=
EXTT6=
EXTT7=
EXTT8=
EXTT9=
EXTT10=
EXTT11=
EXTT12=
EXTT13=
EXTT14=
EXTT15=
PLAYORDER=
